<?xml version="1.0" encoding="utf-8"?>
<!-- Generator: Adobe Illustrator 24.1.2, SVG Export Plug-In . SVG Version: 6.00 Build 0)  -->
<svg version="1.1" id="Warstwa_3" xmlns="http://www.w3.org/2000/svg" xmlns:xlink="http://www.w3.org/1999/xlink" x="0px" y="0px"
	 viewBox="0 0 430 430" style="enable-background:new 0 0 430 430;" xml:space="preserve">
<style type="text/css">
	.st0{fill:#08A789;}
	.st1{fill:#121331;}
	.st2{fill:none;stroke:#121331;stroke-width:12;stroke-linecap:round;stroke-linejoin:round;stroke-miterlimit:10;}
	.st3{fill:#08A385;}
</style>
<path class="st1" d="M215,75.57c-76.88,0-139.43,62.55-139.43,139.43S138.12,354.43,215,354.43c31.69,0,62.7-10.92,87.34-30.74
	c2.58-2.08,2.99-5.85,0.91-8.44c-2.08-2.58-5.85-2.99-8.44-0.91c-22.84,18.38-50.44,28.09-79.82,28.09
	c-70.27,0-127.43-57.17-127.43-127.43S144.73,87.57,215,87.57S342.43,144.73,342.43,215c0,0.12-0.25,12.18-9.08,24.09
	c-11.46,15.45-32.49,24.08-61.02,25.13v-60.01c0-28.98-23.57-52.55-52.55-52.55h-19.57c-28.98,0-52.55,23.57-52.55,52.55v19.57
	c0,28.98,23.57,52.55,52.55,52.55h66.12c44.91,0,66.47-16.36,76.66-30.09c11.31-15.25,11.44-30.6,11.44-31.24
	C354.43,138.12,291.88,75.57,215,75.57z M159.67,223.78v-19.57c0-22.36,18.19-40.55,40.55-40.55h19.57
	c22.36,0,40.55,18.19,40.55,40.55v60.12h-60.12C177.86,264.33,159.67,246.14,159.67,223.78z"/>
</svg>
