<svg xmlns="http://www.w3.org/2000/svg"  viewBox="0 0 48 48" width="48px" height="48px"><circle cx="11" cy="30" r="4" fill="#fa91ad"/><circle cx="37" cy="30" r="4" fill="#fa91ad"/><polyline fill="#f5bc00" points="7,23 41,23 39,18 42,15 38,14 39,9 34,10 33,5 27,7 24,2 21,7 15,5 14,10 9,9 10,14 6,15 9,18 7,23"/><path fill="#fac8d5" d="M24,45L24,45c-7.18,0-13-5.82-13-13V20h26v12C37,39.18,31.18,45,24,45z"/><path fill="#2100c4" d="M16.025,29.256C16.017,29.338,16,29.416,16,29.5c0,1.381,1.119,2.5,2.5,2.5 c1.043,0,1.935-0.64,2.31-1.548L16.025,29.256z"/><path fill="#2100c4" d="M31.785,29.256c0.008,0.081,0.025,0.16,0.025,0.244c0,1.381-1.119,2.5-2.5,2.5 c-1.043,0-1.935-0.64-2.31-1.548L31.785,29.256z"/><rect width="6" height="3" x="21" y="37" fill="#fa91ad"/><polygon fill="#6c19ff" points="37,20 24,20 11,20 11,28 37,28"/><rect width="10" height="3" x="19" y="23" fill="#ddbaff"/><rect width="26" height="3" x="11" y="20" fill="#2100c4"/><path fill="#fa91ad" d="M29.817,35l6.238,1.852c0.24-0.596,0.433-1.216,0.583-1.852H29.817z"/><path fill="#fa91ad" d="M35.058,38.811l-4.272-0.902l3.122,2.497C34.332,39.906,34.712,39.371,35.058,38.811z"/><path fill="#fa91ad" d="M29.817,39.847l1.274,3.041c0.487-0.318,0.95-0.669,1.389-1.048L29.817,39.847z"/><path fill="#fa91ad" d="M17.214,37.908l-4.272,0.902c0.346,0.56,0.726,1.095,1.15,1.595L17.214,37.908z"/><path fill="#fa91ad" d="M11.941,36.841L18.183,35h-6.822C11.511,35.632,11.703,36.248,11.941,36.841z"/><path fill="#fa91ad" d="M16.916,42.892l1.268-3.044L15.52,41.84C15.961,42.221,16.426,42.572,16.916,42.892z"/></svg>